<svg xmlns="http://www.w3.org/2000/svg" xmlns:xlink="http://www.w3.org/1999/xlink" version="1.1" id="Layer_1" x="0px" y="0px" width="100px" height="100px" viewBox="0 0 100 100" enable-background="new 0 0 100 100" xml:space="preserve">
<path fill="white" d="M34.821,79.143c-4.907,0-8.899-3.992-8.899-8.897c0-2.991,1.527-5.799,4.014-7.438V25.455c0-2.694,2.191-4.885,4.885-4.885   c2.693,0,4.884,2.191,4.884,4.885v37.352c2.486,1.64,4.013,4.447,4.013,7.438C43.718,75.15,39.727,79.143,34.821,79.143z    M34.821,22.125c-1.836,0-3.331,1.494-3.331,3.33v38.23l-0.383,0.225c-2.239,1.316-3.63,3.744-3.63,6.336   c0,4.048,3.294,7.342,7.344,7.342c4.048,0,7.343-3.294,7.343-7.342c0-2.592-1.392-5.02-3.63-6.336l-0.383-0.225v-38.23   C38.15,23.619,36.657,22.125,34.821,22.125z"/>
<path fill="red" d="M36.651,65.008c0.022-0.114,0.035-0.232,0.035-0.354V45.56c0-1.03-0.834-1.865-1.865-1.865s-1.867,0.835-1.867,1.865v19.095  c0,0.121,0.013,0.239,0.035,0.354c-2.163,0.757-3.715,2.814-3.715,5.237c0,3.062,2.483,5.545,5.547,5.545  c3.063,0,5.546-2.482,5.546-5.545C40.367,67.822,38.814,65.765,36.651,65.008z"/>
<path fill="white" d="M59.183,79.143c-4.906,0-8.898-3.992-8.898-8.897c0-2.991,1.527-5.799,4.014-7.438V25.455c0-2.694,2.192-4.885,4.885-4.885   c2.693,0,4.884,2.191,4.884,4.885v37.352c2.488,1.64,4.015,4.447,4.015,7.438C68.081,75.15,64.089,79.143,59.183,79.143z    M59.183,22.125c-1.835,0-3.329,1.494-3.329,3.33v38.23l-0.383,0.225c-2.241,1.316-3.632,3.744-3.632,6.336   c0,4.048,3.294,7.342,7.344,7.342c4.049,0,7.343-3.294,7.343-7.342c0-2.592-1.39-5.02-3.63-6.336l-0.384-0.225v-38.23   C62.512,23.619,61.019,22.125,59.183,22.125z"/>
<path fill="red" d="M61.013,65.008c0.022-0.114,0.036-0.232,0.036-0.354V31.737c0-1.03-0.835-1.865-1.866-1.865  c-1.03,0-1.866,0.835-1.866,1.865v32.917c0,0.121,0.013,0.239,0.035,0.354c-2.164,0.757-3.715,2.814-3.715,5.237  c0,3.062,2.482,5.545,5.546,5.545s5.546-2.482,5.546-5.545C64.729,67.822,63.177,65.765,61.013,65.008z"/>
<path fill="white" d="M85.272,79.143c-4.907,0-8.897-3.992-8.897-8.897c0-2.991,1.526-5.799,4.014-7.438V28.392c0-0.43,0.347-0.777,0.777-0.777   c0.428,0,0.777,0.348,0.777,0.777v35.293l-0.384,0.225c-2.239,1.316-3.631,3.744-3.631,6.336c0,4.048,3.295,7.342,7.344,7.342   c4.048,0,7.343-3.294,7.343-7.342c0-2.592-1.392-5.02-3.63-6.336l-0.384-0.225V28.392c0-0.43,0.35-0.777,0.777-0.777   c0.43,0,0.777,0.348,0.777,0.777v34.415c2.487,1.64,4.014,4.447,4.014,7.438C94.17,75.15,90.179,79.143,85.272,79.143z"/>
<path fill="white" d="M12.532,79.143c-4.906,0-8.898-3.992-8.898-8.897c0-2.991,1.527-5.799,4.013-7.438V25.455c0-2.694,2.192-4.885,4.885-4.885   c2.694,0,4.885,2.191,4.885,4.885v37.352c2.486,1.64,4.014,4.447,4.014,7.438C21.43,75.15,17.438,79.143,12.532,79.143z    M12.532,22.125c-1.835,0-3.329,1.494-3.329,3.33v38.23l-0.384,0.225c-2.239,1.316-3.63,3.744-3.63,6.336   c0,4.048,3.294,7.342,7.343,7.342c4.049,0,7.343-3.294,7.343-7.342c0-2.592-1.391-5.02-3.629-6.336l-0.384-0.225v-38.23   C15.861,23.619,14.368,22.125,12.532,22.125z"/>
<path fill="red" d="M14.363,65.008c0.022-0.114,0.035-0.232,0.035-0.354v-5.272c0-1.03-0.835-1.864-1.866-1.864  c-1.03,0-1.866,0.834-1.866,1.864v5.272c0,0.121,0.013,0.239,0.035,0.354c-2.163,0.757-3.715,2.814-3.715,5.237  c0,3.062,2.484,5.545,5.546,5.545c3.063,0,5.547-2.482,5.547-5.545C18.079,67.822,16.526,65.765,14.363,65.008z"/>
<path fill="red" d="M97.143,21.504c-0.723-1.577-3.21-2.362-4.835-1.756c-1.62,0.604-3.726,2.513-5.235,4.039v-0.998  c0.922-1.928,1.839-4.104,1.839-5.123c0-2.046-1.659-3.705-3.705-3.705S81.5,15.619,81.5,17.666c0,1.019,0.919,3.195,1.84,5.123  v0.998c-1.509-1.526-3.616-3.435-5.235-4.039c-1.626-0.606-4.112,0.179-4.835,1.756c-1.215,2.655,0.528,5.493,3.293,4.831  c2.855-0.684,5.232-0.752,6.777-0.679V65.02c-2.145,0.767-3.682,2.815-3.682,5.226c0,3.062,2.484,5.545,5.548,5.545  c3.064,0,5.547-2.482,5.547-5.545c0-2.41-1.536-4.459-3.681-5.226V25.655c1.544-0.073,3.922-0.005,6.778,0.679  C96.614,26.997,98.358,24.159,97.143,21.504z"/>
</svg>
