<?xml version="1.0" encoding="UTF-8" standalone="no"?>
<svg width="720px" height="1440px" viewBox="0 0 720 1440" version="1.1" xmlns="http://www.w3.org/2000/svg" xmlns:xlink="http://www.w3.org/1999/xlink" xmlns:sketch="http://www.bohemiancoding.com/sketch/ns">
    <title>montage-made</title>
    <description>Created with Sketch (http://www.bohemiancoding.com/sketch)</description>
    <defs></defs>
    <g id="Page 1" fill="#D8D8D8" fill-rule="evenodd">
        <path d="M0,0 L0,1440 L360,1250 L720,1440 L720,0 L0,0 Z M0,0" id="Ribbon" fill="#e31d1d"></path>
        <g id="Text">
            <path d="M215.924927,680.691647 C201.651902,680.837371 187.275377,685.255251 174.840291,694.292144 C143.011942,717.416808 135.948929,761.976135 159.066865,793.80669 C161.833003,797.612654 164.924787,801.072463 168.242052,804.159043 L154.671108,933.280025 C136.104502,944.389357 122.815717,963.822776 120.379855,987.001524 C116.270861,1026.12685 144.663311,1061.17981 183.7887,1065.29173 C222.91278,1069.40631 257.946983,1041.0026 262.06586,1001.87199 C264.496443,978.685338 255.522327,956.941427 239.672418,942.197554 L247.569351,867.126454 L291.901358,928.176372 C283.160608,956.50096 292.812423,988.454808 318.122297,1006.84904 C349.94669,1029.97502 394.490312,1022.90376 417.614837,991.071252 C431.304441,972.220716 434.417327,948.912746 428.062336,928.221206 L472.394343,867.154151 L480.291938,942.197554 C464.44269,956.941427 455.467913,978.685338 457.899157,1001.87199 C462.011446,1041.0026 497.077295,1069.40631 536.202684,1065.29173 C575.328074,1061.17981 603.697451,1026.12685 599.589118,987.001524 C597.147316,963.822776 583.859854,944.389357 565.298526,933.280025 L551.727583,804.159043 C567.576831,789.421773 576.556886,767.677188 574.115084,744.487906 C570.006752,705.352686 534.940916,676.977985 495.816836,681.09256 C456.690123,685.200532 428.32076,720.248874 432.435681,759.388051 C432.932737,764.082876 433.849067,768.614178 435.184673,772.956233 L360.009207,876.477212 L284.779021,772.913384 C291.128732,752.231081 288.027714,728.915846 274.338109,710.064 C260.248361,690.664855 238.200357,680.463493 215.924927,680.691647 L215.924927,680.691647 Z M215.47599,704.438112 C216.092368,704.422988 216.71073,704.432711 217.327107,704.438112 C231.786029,704.638569 245.962144,711.412437 255.110963,724.010017 C266.563131,739.772636 266.927025,760.194482 257.664163,775.983475 L334.99533,882.476964 C323.253754,886.862543 312.54783,894.387448 304.250077,904.822893 L226.896511,798.333374 C209.028706,802.253421 189.7264,795.604832 178.288071,779.858688 C162.872598,758.63569 167.565014,728.932982 188.783702,713.512588 C196.865221,707.644704 206.192687,704.676813 215.47599,704.438112 L215.47599,704.438112 Z M503.161994,704.438112 C527.233173,704.352361 547.927776,722.501338 550.49877,746.962583 C552.535797,766.33534 542.623601,784.217893 526.708427,793.259391 L543.104832,949.150123 C560.545464,954.681049 573.958189,970.100134 575.988627,989.470258 C578.73234,1015.56084 559.815043,1038.92421 533.734515,1041.66725 C507.644765,1044.41821 484.264463,1025.48329 481.520737,999.403251 C479.486356,980.025214 489.397243,962.142661 505.316359,953.095883 L488.946321,797.206474 C471.496468,791.674224 458.092978,776.259758 456.053305,756.886339 C453.306946,730.795094 472.22558,707.432391 498.317962,704.693302 C499.946271,704.519881 501.553478,704.444054 503.161994,704.438112 L503.161994,704.438112 Z M216.975742,731.337774 C212.688102,731.277816 208.336507,732.576098 204.60592,735.288814 C195.410955,741.969706 193.374589,754.840921 200.054577,764.038703 C206.738535,773.232516 219.607396,775.26871 228.796421,768.581876 C237.994681,761.905589 240.029062,749.035697 233.345118,739.836592 C229.381152,734.373578 223.244366,731.422824 216.975742,731.337774 L216.975742,731.337774 Z M503.243743,731.337774 C502.543632,731.341826 501.818477,731.391116 501.115746,731.460393 C489.807284,732.652559 481.634132,742.782052 482.819431,754.082605 C484.00473,765.392394 494.138438,773.601086 505.435033,772.414862 C516.736894,771.218063 524.923236,761.09254 523.736614,749.788018 C522.622506,739.188389 513.668831,731.304108 503.243743,731.337747 L503.243743,731.337774 Z M447.559774,796.33013 C452.896906,803.020921 459.403526,808.701527 466.720994,813.081826 L468.697374,831.858507 L400.942875,925.153721 C410.198487,940.934139 409.863593,961.375108 398.420647,977.126531 C383.003865,998.348207 353.280426,1003.04831 332.067679,987.623947 C310.847668,972.202229 306.149987,942.500845 321.572048,921.275875 C333.009054,905.520494 352.328493,898.872567 370.208179,902.802512 L447.559774,796.33013 L447.559774,796.33013 Z M190.629553,818.230312 C198.608884,821.361077 207.090561,823.011523 215.628269,823.158571 L226.723792,838.425328 L214.652601,953.095856 C230.573701,962.142634 240.478661,980.025187 238.448884,999.403224 C235.699231,1025.48326 212.346619,1044.41818 186.262135,1041.66722 C160.176342,1038.92418 141.259045,1015.56081 144.002758,989.470231 C146.031873,970.100107 159.441303,954.681022 176.885891,949.150096 L190.629553,818.230312 L190.629553,818.230312 Z M359.732989,928.598352 C353.465013,928.688021 347.304492,931.639437 343.336583,937.104435 C336.657243,946.296275 338.692299,959.170124 347.889236,965.851029 C357.085511,972.531921 369.941844,970.493107 376.626463,961.29862 C383.307112,952.098866 381.276674,939.230297 372.079075,932.549392 C368.345195,929.835353 364.019306,928.542958 359.732989,928.598352 L359.732989,928.598352 Z M191.284827,973.848056 C180.855122,973.805923 171.879022,981.673647 170.764928,992.276585 C169.578967,1003.57846 177.779148,1013.70398 189.087611,1014.90143 C200.385515,1016.08568 210.490223,1007.87765 211.67617,996.573144 C212.866748,985.268621 204.687656,975.135185 193.379868,973.953565 C192.676463,973.871864 191.983615,973.848097 191.284827,973.848097 L191.284827,973.848056 Z M528.705896,973.848097 C528.01371,973.848097 527.314922,973.871864 526.610868,973.953565 C515.302406,975.135185 507.096285,985.268621 508.288186,996.573144 C509.47875,1007.87765 519.60059,1016.08568 530.902465,1014.90143 C542.206958,1013.70398 550.417035,1003.57846 549.226457,992.276585 C548.11104,981.673647 539.136263,973.805856 528.705896,973.848056 L528.705896,973.848097 Z M528.705896,973.848097" id="Icon" opacity="0.797599" fill="#FFFFFF"></path>
            <path d="M298.45,548.246411 L279.13,548.246411 L265.41,473.766411 L265.13,473.766411 L251.41,548.246411 L232.09,548.246411 L213.19,449.126411 L230.27,449.126411 L243.01,526.126411 L243.57,526.126411 L256.87,449.126411 L274.51,449.126411 L288.23,526.126411 L288.51,526.126411 L301.25,449.126411 L317.49,449.126411 Z M333.25,548.246411 L333.25,449.126411 L350.05,449.126411 L350.05,548.246411 Z M398.99,463.406411 L398.99,548.246411 L382.47,548.246411 L382.47,463.406411 L363.85,463.406411 L363.85,449.126411 L417.61,449.126411 L417.61,463.406411 Z M477.75,548.246411 L477.75,504.286411 L448.07,504.286411 L448.07,548.246411 L431.41,548.246411 L431.41,449.126411 L448.07,449.126411 L448.07,489.306411 L477.75,489.306411 L477.75,449.126411 L494.41,449.126411 L494.41,548.246411 Z M477.75,548.246411" id="with" opacity="0.6" fill="#FFFFFF"></path>
            <path d="M237.9,387.246411 L238.3,278.446411 L237.7,278.446411 L209.3,387.246411 L190.5,387.246411 L162.7,278.446411 L162.1,278.446411 L162.5,387.246411 L140.7,387.246411 L140.7,245.646411 L172.9,245.646411 L200.1,349.246411 L200.9,349.246411 L227.5,245.646411 L261.3,245.646411 L261.3,387.246411 Z M355.3,387.246411 L348.3,357.246411 L311.1,357.246411 L303.9,387.246411 L279.9,387.246411 L315.1,245.646411 L345.7,245.646411 L380.3,387.246411 Z M345.3,338.446411 L330.3,268.246411 L329.5,268.246411 L314.1,338.446411 Z M490.1,316.646411 C490.1,339.046523 485.400047,356.413016 476,368.746411 C466.599953,381.079806 452.766758,387.246411 434.5,387.246411 L399.1,387.246411 L399.1,245.646411 L434.7,245.646411 C452.833424,245.646411 466.599953,251.879682 476,264.346411 C485.400047,276.81314 490.1,294.246299 490.1,316.646411 Z M466.1,316.646411 C466.1,308.246369 465.333341,300.913109 463.8,294.646411 C462.266659,288.379713 460.100014,283.179765 457.3,279.046411 C454.499986,274.913057 451.166686,271.813088 447.3,269.746411 C443.433314,267.679734 439.233356,266.646411 434.7,266.646411 L423.3,266.646411 L423.3,366.246411 L434.7,366.246411 C439.233356,366.246411 443.433314,365.213088 447.3,363.146411 C451.166686,361.079734 454.499986,357.979765 457.3,353.846411 C460.100014,349.713057 462.266659,344.546442 463.8,338.346411 C465.333341,332.14638 466.1,324.913119 466.1,316.646411 Z M516.9,387.246411 L516.9,245.646411 L580.3,245.646411 L580.3,266.846411 L539.9,266.846411 L539.9,304.446411 L577.3,304.446411 L577.3,324.046411 L539.9,324.046411 L539.9,365.846411 L582.3,365.846411 L582.3,387.246411 Z M516.9,387.246411" id="MADE" opacity="0.8" fill="#FFFFFF"></path>
        </g>
    </g>
</svg>