<?xml version="1.0" encoding="utf-8"?>
<!-- Generator: Adobe Illustrator 17.1.0, SVG Export Plug-In . SVG Version: 6.00 Build 0)  -->
<!DOCTYPE svg PUBLIC "-//W3C//DTD SVG 1.1//EN" "http://www.w3.org/Graphics/SVG/1.1/DTD/svg11.dtd">
<svg version="1.1" id="Layer_1" xmlns:sketch="http://www.bohemiancoding.com/sketch/ns"
	 xmlns="http://www.w3.org/2000/svg" xmlns:xlink="http://www.w3.org/1999/xlink" x="0px" y="0px" viewBox="0 0 720 1440"
	 enable-background="new 0 0 720 1440" xml:space="preserve">
<title>montage-made</title>
<description>Created with Sketch (http://www.bohemiancoding.com/sketch)</description>
<g id="Page_1">
	<path id="Ribbon" fill="#E31D1D" d="M0,0v1440l360-190l360,190V0H0z"/>
</g>
<g opacity="0.8">
	<g>
		<g>
			<path fill="#FFFFFF" d="M570.6,667.2c-0.1-0.5-0.3-0.9-0.5-1.3c-0.3-0.9-0.7-1.8-1.2-2.7c-0.3-0.5-0.6-0.9-1-1.4
				c-0.5-0.7-1-1.4-1.6-2.1c-0.4-0.4-0.9-0.8-1.4-1.2c-0.4-0.4-0.8-0.8-1.3-1.1l-17.9-11.9L369.5,528c-0.2-0.2-0.3-0.3-0.6-0.4
				c-0.2-0.1-0.6-0.3-0.8-0.4c-0.4-0.2-0.9-0.3-1.4-0.5c-0.7-0.3-1.4-0.6-2.2-0.8c-0.7-0.2-1.4-0.3-2.2-0.4
				c-0.7-0.1-1.5-0.2-2.2-0.2H360c-0.8,0-1.5,0.1-2.2,0.2c-0.7,0.1-1.5,0.2-2.2,0.4c-0.8,0.2-1.5,0.5-2.2,0.8
				c-0.5,0.2-0.9,0.3-1.4,0.5c-0.2,0.1-0.4,0.3-0.7,0.5c-0.2,0.1-0.5,0.2-0.8,0.4L168.4,649.5l-12,8c-0.5,0.3-0.8,0.8-1.3,1.1
				c-0.5,0.4-0.9,0.7-1.4,1.2c-0.6,0.6-1.1,1.3-1.6,2.1c-0.3,0.4-0.7,0.9-1,1.4c-0.5,0.8-0.8,1.8-1.1,2.7c-0.2,0.4-0.4,0.8-0.5,1.3
				c-0.4,1.4-0.6,2.9-0.6,4.3l0.1,258.9c0,10.3,8.4,18.7,18.7,18.7c3.4,0,6.6-0.9,9.3-2.5l173.6-117.3c0.2-0.2,0.5-0.2,0.8-0.4
				c0.2-0.1,0.4-0.4,0.7-0.5c0.4-0.2,0.9-0.3,1.4-0.5c0.7-0.3,1.4-0.6,2.2-0.8c0.7-0.2,1.5-0.3,2.2-0.4c0.7-0.1,1.5-0.2,2.2-0.2h0.1
				c0.8,0,1.5,0.1,2.2,0.2c0.7,0.1,1.5,0.2,2.2,0.4c0.8,0.2,1.5,0.5,2.2,0.8c0.4,0.2,0.9,0.3,1.4,0.5c0.2,0.1,0.4,0.2,0.6,0.4
				c0.2,0.1,0.5,0.3,0.8,0.5l173.6,117.3c2.7,1.6,5.9,2.5,9.4,2.5c10.3,0,18.7-8.4,18.7-18.7l0.1-258.9
				C571.1,670,571,668.6,570.6,667.2z M182.9,898.7V702.9l146.9,97.9L182.9,898.7z M343.3,769.4l-146.9-98.1l38.6-25.7l108.3-72.2
				v72.2V769.4z M377.2,645.6v-72.2l108.3,72.2l38.5,25.7l-146.8,97.8V645.6z M390.8,800.8l146.9-97.9l0.1,195.9L390.8,800.8z"/>
		</g>
	</g>
</g>
<text transform="matrix(1 0 0 1 250 440)" opacity="0.6" text-rendering="optimizeLegibility" fill="#FFFFFF" font-family="'Helvetica','Arial','sans-serif'" font-size="92">WITH</text>
<text transform="matrix(1 0 0 1 70 313)" opacity="0.8" text-rendering="optimizeLegibility" fill="#FFFFFF" font-family="'Helvetica','Arial','sans-serif'" font-size="130">CRAFTED</text>
<g>
	<polygon fill="#FFFFFF" points="65.6,1042.1 88.8,1074.6 92.2,1074.6 114.9,1043.1 114.9,1081.8 127.9,1081.8 127.9,1021.8
		116.7,1021.8 91.5,1058.1 65.7,1021.8 54,1021.8 54,1081.8 65.5,1081.8 	"/>
	<path fill="#FFFFFF" d="M161.1,1070.4h45.5v-38h-45.5V1070.4z M148.7,1035.9c0-5.6,1-9.3,3.2-11.3c2.1-1.9,6-2.9,11.7-2.9h40.9
		c5.7,0,9.7,1,11.7,2.9c2.1,1.9,3.1,5.7,3.1,11.3v31.6c0,5.6-1.1,9.3-3.1,11.3c-2.1,1.9-6,2.9-11.7,2.9h-40.9c-5.7,0-9.7-1-11.7-2.9
		c-2.1-1.9-3.2-5.7-3.2-11.3V1035.9z"/>
	<polygon fill="#FFFFFF" points="303.1,1062.1 253.3,1021.7 243.8,1021.7 243.8,1081.7 256.4,1081.7 256.4,1041.1 306.1,1081.7
		315.7,1081.7 315.7,1021.7 303.1,1021.7 	"/>
	<polygon fill="#FFFFFF" points="374.2,1032.4 374.2,1081.7 360.2,1081.7 360.2,1032.4 332.7,1032.4 332.7,1021.7 401.9,1021.7
		401.9,1032.4 	"/>
	<path fill="#FFFFFF" d="M429.5,1057.8h26.3l-12.9-24.4L429.5,1057.8z M402.6,1081.7l34-60h13.5l34.4,60h-15.7l-7.2-13.1h-38
		l-7,13.1H402.6z"/>
	<path fill="#FFFFFF" d="M558.5,1032.4h-43.6v38h43.6v-13.4h-20.3v-10.3h33.9v20.7c0,5.6-1,9.3-3.1,11.3c-2.1,1.9-6,2.9-11.8,2.9
		h-41.4c-5.7,0-9.7-1-11.8-2.9c-2.1-1.9-3.1-5.7-3.1-11.3v-31.6c0-5.6,1-9.3,3.1-11.3c2.1-1.9,6-2.9,11.8-2.9h41.4
		c5.6,0,9.5,1,11.6,2.8c2.2,1.9,3.2,5.5,3.2,10.8v1.4l-13.6,1.6V1032.4z"/>
	<polygon fill="#FFFFFF" points="600.9,1081.7 600.9,1021.7 662.3,1021.7 662.3,1032 614.8,1032 614.8,1046.8 642.5,1046.8
		642.5,1057 614.8,1057 614.8,1070.4 666,1070.4 666,1081.7 	"/>
</g>
</svg>
